name ./resultDataOpenSim/trcMotMarkerGrf/sub10/grf-01-07.mot
datacolumns 19
datarows 12
range 1.39200000 1.43600000
endheader

                time	     ground_force_vx	     ground_force_vy	     ground_force_vz	     ground_force_px	     ground_force_py	     ground_force_pz	   l_ground_force_vx	   l_ground_force_vy	   l_ground_force_vz	   l_ground_force_px	   l_ground_force_py	   l_ground_force_pz	     ground_torque_x	     ground_torque_y	     ground_torque_z	   l_ground_torque_x	   l_ground_torque_y	   l_ground_torque_z	
          1.39200000	        -35.06787947	        455.69266147	        -30.06119965	          0.80666971	          0.00000000	          0.10160612	          0.00000000	          0.00000000	          0.00000000	          0.00000000	          0.00000000	          0.00000000	          0.00000000	         -0.57240512	          0.00000000	          0.00000000	          0.00000000	          0.00000000	
          1.39600000	        -29.30806218	        446.80376925	        -29.10273457	          0.80831904	          0.00000000	          0.10195980	          0.00000000	          0.00000000	          0.00000000	          0.00000000	          0.00000000	          0.00000000	          0.00000000	         -0.65597849	          0.00000000	          0.00000000	          0.00000000	          0.00000000	
          1.40000000	        -24.73152232	        438.76227550	        -27.77993907	          0.81006047	          0.00000000	          0.10227644	          0.00000000	          0.00000000	          0.00000000	          0.00000000	          0.00000000	          0.00000000	          0.00000000	         -0.75320853	          0.00000000	          0.00000000	          0.00000000	          0.00000000	
          1.40400000	        -22.05056979	        431.63640576	        -26.37075021	          0.81204361	          0.00000000	          0.10252927	          0.00000000	          0.00000000	          0.00000000	          0.00000000	          0.00000000	          0.00000000	          0.00000000	         -0.80837971	          0.00000000	          0.00000000	          0.00000000	          0.00000000	
          1.40800000	        -21.43849963	        425.44520063	        -25.18057702	          0.81428731	          0.00000000	          0.10272784	          0.00000000	          0.00000000	          0.00000000	          0.00000000	          0.00000000	          0.00000000	          0.00000000	         -0.78333693	          0.00000000	          0.00000000	          0.00000000	          0.00000000	
          1.41200000	        -22.49567088	        420.17560532	        -24.47077188	          0.81668478	          0.00000000	          0.10289405	          0.00000000	          0.00000000	          0.00000000	          0.00000000	          0.00000000	          0.00000000	          0.00000000	         -0.66574594	          0.00000000	          0.00000000	          0.00000000	          0.00000000	
          1.41600000	        -24.37164468	        415.81944230	        -24.40624265	          0.81905362	          0.00000000	          0.10305890	          0.00000000	          0.00000000	          0.00000000	          0.00000000	          0.00000000	          0.00000000	          0.00000000	         -0.46883549	          0.00000000	          0.00000000	          0.00000000	          0.00000000	
          1.42000000	        -26.00046750	        412.38998167	        -25.02862895	          0.82119434	          0.00000000	          0.10325281	          0.00000000	          0.00000000	          0.00000000	          0.00000000	          0.00000000	          0.00000000	          0.00000000	         -0.22372171	          0.00000000	          0.00000000	          0.00000000	          0.00000000	
          1.42400000	        -26.39165099	        409.90757874	        -26.25487933	          0.82292209	          0.00000000	          0.10349178	          0.00000000	          0.00000000	          0.00000000	          0.00000000	          0.00000000	          0.00000000	          0.00000000	          0.03224062	          0.00000000	          0.00000000	          0.00000000	          0.00000000	
          1.42800000	        -24.89885716	        408.38694897	        -27.90156979	          0.82411805	          0.00000000	          0.10377943	          0.00000000	          0.00000000	          0.00000000	          0.00000000	          0.00000000	          0.00000000	          0.00000000	          0.26699948	          0.00000000	          0.00000000	          0.00000000	          0.00000000	
          1.43200000	        -21.38927475	        407.84927031	        -29.72852279	          0.82476489	          0.00000000	          0.10410395	          0.00000000	          0.00000000	          0.00000000	          0.00000000	          0.00000000	          0.00000000	          0.00000000	          0.46207976	          0.00000000	          0.00000000	          0.00000000	          0.00000000	
          1.43600000	        -16.26777232	        408.34008172	        -31.48988566	          0.82494902	          0.00000000	          0.10443079	          0.00000000	          0.00000000	          0.00000000	          0.00000000	          0.00000000	          0.00000000	          0.00000000	          0.61607376	          0.00000000	          0.00000000	          0.00000000	          0.00000000	
